<?xml version="1.0" standalone="no"?>
<!DOCTYPE svg PUBLIC "-//W3C//DTD SVG 20010904//EN"
 "http://www.w3.org/TR/2001/REC-SVG-20010904/DTD/svg10.dtd">
<svg version="1.0" xmlns="http://www.w3.org/2000/svg"
 width="1080.000000pt" height="1080.000000pt" viewBox="0 0 1080.000000 1080.000000"
 preserveAspectRatio="xMidYMid meet">
<metadata>
Created by potrace 1.16, written by Peter Selinger 2001-2019
</metadata>
<g transform="translate(0.000000,1080.000000) scale(0.100000,-0.100000)"
fill="#000000" stroke="none">
<path d="M5430 8920 c-8 -5 -75 -10 -148 -10 -86 0 -131 -4 -127 -10 4 -6 -16
-10 -52 -10 -32 -1 -89 -5 -128 -11 -38 -5 -91 -13 -117 -16 -27 -3 -48 -9
-48 -14 0 -5 -20 -9 -45 -9 -25 0 -45 -4 -45 -9 0 -4 -27 -11 -60 -15 -33 -4
-60 -11 -60 -16 0 -6 -13 -10 -29 -10 -17 0 -33 -4 -36 -10 -3 -5 -17 -10 -31
-10 -13 0 -24 -4 -24 -9 0 -5 -21 -12 -46 -16 -26 -4 -54 -10 -63 -15 -21 -10
-57 -25 -106 -45 -74 -29 -95 -40 -95 -47 0 -5 -9 -8 -20 -8 -18 0 -88 -28
-100 -40 -3 -3 -31 -18 -62 -34 -32 -16 -58 -32 -58 -37 0 -5 -7 -9 -15 -9
-21 0 -96 -41 -102 -55 -2 -7 -16 -15 -31 -18 -15 -3 -37 -15 -49 -26 -12 -12
-27 -21 -33 -21 -5 0 -10 -4 -10 -9 0 -5 -14 -14 -30 -20 -17 -5 -33 -17 -36
-26 -3 -8 -14 -15 -24 -15 -10 0 -27 -11 -38 -25 -11 -14 -24 -25 -29 -25 -6
0 -22 -11 -37 -25 -15 -14 -30 -25 -34 -25 -5 0 -25 -16 -45 -35 -20 -19 -40
-35 -43 -35 -6 0 -87 -75 -117 -108 -7 -7 -18 -18 -25 -25 -16 -14 -52 -51
-69 -69 -7 -7 -18 -18 -24 -24 -6 -7 -22 -23 -36 -37 -14 -14 -29 -29 -34 -33
-38 -37 -89 -93 -89 -98 0 -4 -10 -18 -22 -31 -34 -36 -48 -53 -48 -60 0 -4
-16 -21 -35 -39 -19 -19 -35 -39 -35 -46 0 -7 -11 -21 -25 -32 -14 -11 -25
-26 -25 -34 0 -8 -4 -14 -9 -14 -5 0 -16 -16 -25 -35 -9 -19 -21 -35 -26 -35
-6 0 -10 -7 -10 -16 0 -9 -8 -24 -19 -33 -10 -9 -21 -26 -25 -38 -4 -13 -12
-23 -17 -23 -5 0 -9 -7 -9 -15 0 -8 -3 -15 -7 -15 -11 0 -43 -58 -43 -76 0 -8
-4 -14 -10 -14 -5 0 -10 -5 -10 -11 0 -6 -7 -17 -15 -25 -8 -9 -15 -24 -15
-35 0 -10 -4 -19 -10 -19 -5 0 -10 -7 -10 -15 0 -8 -4 -15 -8 -15 -4 0 -16
-22 -27 -50 -11 -27 -23 -50 -27 -50 -4 0 -8 -9 -8 -20 0 -11 -4 -20 -9 -20
-5 0 -12 -15 -16 -32 -8 -41 -28 -88 -36 -88 -9 0 -19 -68 -12 -86 4 -12 320
-14 2374 -14 1573 0 2369 3 2369 10 0 6 24 10 53 11 28 0 75 5 102 10 28 6 65
13 83 16 18 3 35 9 38 14 3 5 16 9 30 9 13 0 24 4 24 9 0 5 23 12 50 16 28 4
50 11 50 16 0 5 14 9 31 9 17 0 28 4 24 10 -4 6 7 10 24 10 17 0 31 4 31 9 0
5 25 12 55 16 30 3 57 11 60 16 4 5 17 9 31 9 13 0 24 4 24 9 0 4 27 11 60 15
33 4 62 11 65 16 4 6 28 10 55 10 27 0 52 5 55 10 3 6 28 10 56 10 27 0 49 5
49 10 0 6 40 10 99 10 55 0 106 3 115 6 20 8 22 77 3 92 -7 6 -19 27 -27 47
-7 19 -17 35 -22 35 -4 0 -8 9 -8 20 0 11 -4 20 -9 20 -5 0 -12 11 -15 25 -4
14 -11 25 -16 25 -6 0 -10 9 -10 20 0 11 -4 20 -10 20 -5 0 -10 6 -10 13 0 8
-8 21 -18 30 -17 15 -69 17 -545 17 -345 0 -527 3 -527 10 0 7 -204 10 -591
10 -391 0 -588 3 -584 10 4 6 -40 10 -124 10 -72 0 -131 4 -131 9 0 4 130 12
290 16 159 4 306 11 327 16 21 5 102 9 181 9 93 0 141 4 137 10 -4 6 43 10
134 10 78 0 141 4 141 8 0 8 315 26 668 38 79 3 142 9 142 15 0 5 47 9 110 9
67 0 110 4 110 10 0 6 20 10 45 10 38 0 45 3 45 19 0 27 -32 80 -52 87 -9 3
-20 15 -24 27 -3 12 -33 48 -66 80 l-59 57 -409 0 c-233 0 -410 4 -412 9 -2 5
-378 13 -883 17 l-880 9 575 7 c339 5 588 12 606 18 17 5 128 10 247 10 138 0
217 4 217 10 0 6 80 10 218 11 119 1 295 4 391 8 222 8 225 10 124 110 -39 39
-74 71 -78 71 -3 0 -25 18 -47 40 -23 22 -45 40 -50 40 -4 0 -28 19 -53 43
-24 24 -61 52 -82 63 -21 10 -39 22 -41 27 -2 4 -14 7 -27 7 -13 0 -25 6 -27
13 -4 9 -83 13 -341 15 -201 2 -337 7 -337 13 0 5 -114 9 -286 9 -187 0 -283
3 -279 10 4 6 -8 10 -29 10 -19 0 -38 5 -41 10 -4 7 55 10 169 10 97 0 176 4
176 9 0 4 138 12 308 16 169 4 309 11 310 16 2 5 28 9 58 9 51 0 54 1 54 25 0
19 -5 25 -21 25 -11 0 -17 5 -14 10 3 6 -3 10 -14 10 -11 0 -26 6 -33 13 -18
17 -97 55 -130 63 -16 3 -28 10 -28 15 0 5 -9 9 -20 9 -11 0 -20 4 -20 8 0 10
-88 42 -117 42 -13 0 -23 3 -23 8 0 10 -52 32 -94 39 -20 3 -36 10 -36 14 0 5
-11 9 -24 9 -14 0 -28 5 -31 10 -3 6 -17 10 -30 10 -13 0 -26 4 -29 9 -3 5
-33 12 -66 16 -33 4 -60 11 -60 16 0 5 -15 9 -34 9 -19 0 -38 5 -41 10 -3 6
-26 10 -51 10 -25 0 -54 5 -65 10 -11 6 -64 14 -119 17 -55 3 -97 9 -95 14 3
4 -54 10 -127 13 -73 3 -162 8 -198 11 -37 3 -71 1 -80 -5z"/>
<path d="M7798 6793 c-21 -2 -38 -8 -38 -14 0 -5 -14 -9 -31 -9 -16 0 -28 -4
-25 -9 3 -5 -17 -11 -44 -15 -27 -4 -52 -11 -55 -16 -3 -6 -19 -10 -35 -10
-16 0 -32 -4 -35 -10 -3 -5 -17 -10 -31 -10 -13 0 -24 -4 -24 -9 0 -5 -22 -12
-50 -16 -27 -4 -50 -11 -50 -16 0 -5 -14 -9 -31 -9 -17 0 -28 -4 -24 -10 4 -6
-6 -10 -22 -10 -27 0 -110 -23 -145 -41 -10 -5 -27 -9 -38 -9 -11 0 -20 -4
-20 -9 0 -5 -20 -12 -45 -15 -24 -4 -47 -11 -50 -17 -4 -5 -17 -9 -31 -9 -13
0 -24 -4 -24 -10 0 -5 -13 -10 -30 -10 -16 0 -30 -4 -30 -9 0 -5 -22 -12 -50
-16 -27 -4 -50 -11 -50 -16 0 -5 -11 -9 -25 -9 -14 0 -25 -4 -25 -10 0 -5 -9
-10 -20 -10 -22 0 -106 -26 -132 -40 -10 -6 -27 -10 -38 -10 -11 0 -20 -4 -20
-9 0 -5 -20 -12 -45 -15 -24 -4 -47 -11 -50 -17 -4 -5 -17 -9 -31 -9 -13 0
-24 -4 -24 -10 0 -5 -11 -10 -25 -10 -14 0 -25 -4 -25 -9 0 -5 -20 -12 -45
-15 -25 -4 -45 -11 -45 -17 0 -5 -13 -9 -29 -9 -17 0 -33 -4 -36 -10 -3 -5
-16 -10 -28 -10 -12 0 -35 -7 -51 -15 -15 -8 -39 -15 -52 -15 -13 0 -24 -4
-24 -10 0 -5 -9 -10 -20 -10 -11 0 -20 -4 -20 -9 0 -5 -22 -12 -50 -16 -27 -4
-50 -11 -50 -16 0 -5 -14 -9 -31 -9 -17 0 -28 -4 -24 -10 4 -6 -7 -10 -24 -10
-17 0 -31 -4 -31 -9 0 -5 -22 -12 -50 -16 -27 -4 -50 -11 -50 -16 0 -5 -11 -9
-25 -9 -14 0 -25 -4 -25 -10 0 -5 -11 -10 -25 -10 -14 0 -42 -7 -62 -15 -19
-8 -44 -15 -54 -15 -11 0 -19 -4 -19 -10 0 -5 -11 -10 -25 -10 -14 0 -25 -4
-25 -9 0 -5 -22 -12 -50 -16 -27 -4 -50 -11 -50 -16 0 -5 -9 -9 -20 -9 -11 0
-28 -4 -38 -9 -28 -13 -118 -41 -136 -41 -9 0 -16 -4 -16 -10 0 -5 -11 -10
-25 -10 -14 0 -25 -4 -25 -9 0 -5 -22 -12 -50 -16 -27 -4 -52 -11 -56 -16 -3
-5 -16 -9 -30 -9 -13 0 -24 -4 -24 -10 0 -5 -11 -10 -25 -10 -14 0 -25 -4 -25
-9 0 -5 -22 -12 -50 -16 -27 -4 -50 -11 -50 -16 0 -5 -11 -9 -25 -9 -14 0 -25
-4 -25 -9 0 -5 -22 -11 -50 -15 -27 -4 -52 -11 -55 -16 -3 -6 -17 -10 -31 -10
-13 0 -24 -4 -24 -10 0 -5 -11 -10 -25 -10 -14 0 -25 -4 -25 -9 0 -5 -22 -12
-50 -16 -27 -4 -50 -11 -50 -16 0 -5 -13 -9 -30 -9 -16 0 -30 -4 -30 -10 0 -5
-11 -10 -25 -10 -14 0 -25 -4 -25 -9 0 -5 -22 -12 -50 -16 -27 -4 -50 -11 -50
-16 0 -17 -33 -9 -54 14 -12 12 -39 35 -61 51 -22 17 -42 33 -45 36 -3 4 -20
13 -37 21 -18 8 -33 17 -33 21 0 4 -16 10 -35 14 -19 3 -35 10 -35 15 0 5 -20
9 -45 9 -26 0 -45 5 -45 11 0 7 -24 9 -72 5 -99 -7 -158 -16 -158 -26 0 -4
-16 -11 -35 -14 -19 -4 -35 -11 -35 -16 0 -6 -9 -10 -20 -10 -11 0 -20 -4 -20
-10 0 -5 -5 -10 -12 -10 -18 0 -127 -117 -134 -145 -3 -14 -10 -25 -15 -25 -5
0 -9 -9 -9 -19 0 -11 -4 -21 -10 -23 -5 -1 -12 -30 -16 -63 -8 -64 -36 -105
-74 -105 -11 0 -20 -4 -20 -10 0 -5 -10 -10 -22 -10 -13 0 -36 -7 -52 -15 -15
-8 -37 -15 -47 -15 -11 0 -19 -4 -19 -10 0 -5 -16 -12 -35 -16 -19 -3 -38 -10
-41 -15 -3 -5 -14 -9 -25 -9 -10 0 -19 -4 -19 -10 0 -5 -11 -10 -25 -10 -14 0
-25 -4 -25 -10 0 -5 -5 -10 -11 -10 -11 0 -43 -13 -135 -56 -28 -13 -56 -24
-62 -24 -7 0 -12 -4 -12 -10 0 -5 -9 -10 -20 -10 -11 0 -20 -4 -20 -8 0 -4
-22 -16 -50 -27 -27 -11 -50 -23 -50 -27 0 -4 -6 -8 -14 -8 -7 0 -19 -7 -26
-15 -7 -8 -20 -15 -29 -15 -9 0 -23 -9 -31 -20 -8 -11 -18 -20 -23 -20 -4 0
-17 -9 -28 -19 -15 -14 -19 -26 -14 -41 l7 -22 237 7 c130 4 244 11 253 16 9
5 69 9 132 9 71 0 116 4 116 10 0 6 52 10 135 10 74 0 135 4 135 8 0 5 127 12
283 16 159 4 283 11 285 17 2 5 46 9 97 9 52 0 96 4 99 9 3 4 79 11 169 15 90
4 181 11 203 16 21 5 80 10 131 10 50 0 95 5 98 10 3 6 44 10 91 10 46 0 84 4
84 9 0 5 68 12 150 16 83 4 153 11 156 16 3 5 41 9 85 9 51 0 78 4 74 10 -4 6
27 10 84 10 50 0 91 4 91 9 0 4 60 11 133 15 72 4 134 11 135 16 2 6 33 10 68
10 41 0 63 4 59 10 -4 6 23 11 72 12 114 4 188 -1 191 -12 2 -6 8 -10 14 -10
13 0 37 -31 38 -48 0 -7 -6 -19 -12 -26 -15 -14 -149 -36 -258 -43 -41 -2 -79
-9 -84 -14 -6 -5 -43 -9 -83 -9 -40 0 -73 -4 -73 -9 0 -4 -73 -11 -162 -15
-90 -4 -170 -12 -180 -17 -9 -5 -53 -9 -97 -9 -47 0 -81 -4 -81 -10 0 -6 -38
-10 -94 -10 -52 0 -96 -4 -98 -9 -1 -5 -101 -13 -221 -17 -120 -4 -220 -11
-223 -15 -3 -5 -63 -9 -134 -9 -70 0 -130 -4 -132 -9 -3 -10 -628 -32 -1078
-38 -168 -3 -309 -9 -315 -14 -5 -5 -129 -9 -286 -9 -163 0 -279 -4 -281 -9
-5 -16 -741 -18 -746 -3 -2 6 -12 12 -22 12 -10 0 -22 5 -25 10 -3 6 -15 10
-26 10 -10 0 -19 4 -19 9 0 5 -15 13 -32 17 -18 3 -40 14 -48 24 -8 9 -26 21
-40 25 -14 4 -32 16 -41 26 -9 11 -24 19 -33 19 -10 0 -15 4 -12 9 7 10 -27
21 -66 21 -16 0 -28 5 -28 10 0 16 -49 12 -92 -7 -43 -19 -51 -49 -18 -73 11
-8 20 -23 20 -33 0 -9 7 -20 15 -23 8 -4 15 -12 15 -18 0 -7 8 -21 17 -32 24
-27 42 -55 49 -76 4 -10 9 -18 13 -18 4 0 15 -15 26 -32 38 -67 43 -68 211
-68 91 0 155 -4 159 -10 4 -6 141 -10 380 -10 290 0 374 -3 378 -12 2 -7 2
-46 -1 -85 -5 -69 -4 -73 16 -73 11 0 27 7 36 15 8 8 22 15 30 15 9 0 16 4 16
8 0 5 27 17 60 28 33 10 60 22 60 26 0 5 11 8 24 8 13 0 26 4 28 8 4 12 68 23
68 12 0 -5 -16 -12 -35 -16 -19 -3 -35 -10 -35 -15 0 -5 -7 -9 -15 -9 -8 0
-15 -4 -15 -10 0 -5 -6 -10 -14 -10 -18 0 -76 -32 -76 -42 0 -5 -5 -8 -11 -8
-6 0 -17 -6 -24 -12 -8 -7 -21 -19 -30 -26 -19 -16 -20 -76 0 -94 37 -33 46
-38 73 -38 15 0 32 -4 38 -10 5 -5 69 -12 142 -16 72 -4 132 -11 132 -15 0 -5
250 -9 556 -9 352 0 553 4 549 10 -3 6 72 10 200 12 l205 3 0 -32 c0 -18 -4
-33 -10 -33 -5 0 -10 -20 -10 -44 0 -25 5 -48 10 -51 6 -3 10 -17 10 -31 0
-13 4 -24 9 -24 5 0 12 -8 15 -17 15 -46 86 -103 129 -103 16 0 26 -4 22 -10
-8 -13 109 -13 133 0 9 5 34 16 54 25 21 10 40 25 43 35 3 11 15 22 26 25 12
4 22 19 26 36 3 16 9 29 14 29 5 0 9 11 9 25 0 14 5 25 10 25 6 0 10 18 10 40
0 22 -4 40 -10 40 -5 0 -10 16 -10 35 0 19 -4 35 -10 35 -5 0 -10 8 -10 18 0
17 15 20 138 31 75 7 170 15 210 18 40 2 70 9 67 14 -4 5 26 9 70 9 42 0 74 4
71 9 -3 5 55 12 129 16 74 4 138 11 141 16 3 5 34 9 69 9 35 0 67 5 70 10 3 6
16 10 28 10 21 0 22 -4 22 -102 0 -72 4 -103 13 -106 6 -2 12 -8 12 -13 0 -25
84 -89 117 -89 13 0 23 -4 23 -10 0 -6 28 -10 65 -10 36 0 65 4 65 9 0 5 13
11 30 14 34 7 130 97 130 121 0 9 5 16 10 16 14 0 12 141 -2 173 -7 15 -16 27
-20 27 -5 0 -8 8 -8 18 0 16 16 20 143 31 78 7 179 15 225 17 45 3 82 10 82
15 0 5 36 9 81 9 44 0 78 4 75 9 -3 4 56 11 131 15 75 4 145 11 154 17 10 5
54 9 98 9 47 0 81 4 81 10 0 6 30 10 70 10 39 0 70 4 70 9 0 5 70 12 155 16
85 4 155 11 155 16 0 5 38 9 85 9 47 0 85 4 85 8 0 8 206 29 378 38 50 3 92
10 92 15 0 5 38 9 85 9 50 0 85 4 85 10 0 6 18 10 41 10 56 0 79 14 79 50 0
28 -3 30 -35 30 -19 0 -35 5 -35 10 0 6 -36 10 -87 10 -49 0 -106 5 -128 10
-22 5 -111 12 -197 16 -87 4 -158 11 -158 15 0 5 -42 9 -94 9 -53 0 -98 4
-101 10 -3 6 -36 10 -73 10 -130 0 -321 13 -316 22 3 4 -31 8 -75 8 -72 0 -81
2 -81 19 0 14 10 20 43 25 46 7 102 23 129 37 10 5 29 9 43 9 14 0 25 4 25 9
0 5 19 11 43 15 60 9 127 29 127 38 0 4 18 8 40 8 22 0 40 4 40 9 0 5 25 13
55 16 30 4 58 11 61 16 3 5 18 9 35 9 16 0 29 5 29 10 0 6 11 10 25 10 14 0
42 7 62 15 19 8 48 15 64 15 16 0 29 5 29 10 0 6 11 10 25 10 14 0 25 4 25 9
0 4 23 11 52 14 28 4 56 11 62 17 5 5 22 10 37 10 15 0 31 5 34 10 3 6 17 10
31 10 13 0 24 4 24 9 0 4 27 11 60 15 33 4 60 11 60 16 0 6 11 10 25 10 14 0
25 4 25 9 0 5 18 11 40 13 37 3 42 1 55 -26 8 -16 15 -35 15 -43 0 -7 8 -17
18 -20 9 -4 21 -11 25 -17 6 -8 10 -7 14 2 2 6 20 12 39 12 19 0 34 5 34 10 0
6 9 10 19 10 18 0 18 -2 -5 -46 -24 -45 -33 -124 -14 -124 6 0 10 -7 10 -16 0
-29 33 -72 70 -93 29 -16 55 -21 109 -21 41 0 71 4 71 10 0 6 7 10 16 10 8 0
33 19 55 42 29 31 39 51 40 78 3 62 -3 115 -12 118 -5 2 -9 9 -9 16 0 13 -41
56 -54 56 -4 0 -14 7 -22 15 -12 12 -13 16 -2 18 7 2 36 11 64 20 29 10 59 17
68 17 9 0 16 5 16 10 0 6 9 10 21 10 11 0 27 6 35 14 16 17 19 46 4 46 -10 0
-80 64 -80 73 0 3 20 8 45 11 24 4 47 11 50 17 4 5 15 9 26 9 10 0 19 5 19 10
0 6 11 10 25 10 14 0 25 3 25 8 0 4 27 15 60 26 33 10 60 22 60 27 0 5 8 9 18
9 10 0 27 7 38 15 10 8 27 15 37 15 9 0 17 5 17 10 0 6 7 10 15 10 8 0 15 5
15 10 0 6 6 10 14 10 18 0 76 32 76 43 0 4 7 7 15 7 8 0 15 4 15 9 0 5 11 12
25 15 14 4 25 11 25 16 0 6 6 10 14 10 7 0 25 11 40 25 15 14 30 25 34 25 14
0 102 93 102 107 0 7 5 13 10 13 6 0 10 9 10 20 0 11 5 20 10 20 6 0 10 14 10
30 0 17 -4 30 -10 30 -5 0 -10 9 -10 20 0 11 -5 20 -11 20 -6 0 -17 7 -25 15
-9 8 -26 15 -39 15 -13 0 -27 5 -30 10 -3 6 -17 10 -31 10 -13 0 -24 4 -24 9
0 31 -652 50 -1020 30 -96 -6 -219 -12 -272 -15 -54 -3 -98 -10 -98 -15 0 -5
-34 -9 -75 -9 -41 0 -75 -4 -75 -8 0 -5 -57 -12 -126 -16 -69 -3 -134 -11
-144 -16 -10 -6 -42 -10 -70 -10 -32 0 -49 -4 -45 -10 4 -6 -13 -10 -44 -10
-27 0 -52 -4 -55 -9 -3 -5 -42 -12 -86 -16 -44 -4 -83 -11 -86 -16 -3 -5 -23
-9 -45 -9 -21 0 -39 -4 -39 -9 0 -4 -31 -11 -69 -15 -39 -3 -82 -11 -96 -16
-14 -6 -40 -10 -56 -10 -16 0 -29 -4 -29 -10 0 -5 -13 -10 -30 -10 -16 0 -30
-4 -30 -9 0 -4 -33 -11 -72 -15 -40 -4 -77 -11 -82 -16 -6 -6 -25 -10 -43 -10
-18 0 -33 -4 -33 -8 0 -4 -30 -13 -67 -20 -38 -7 -83 -15 -101 -18 -18 -4 -35
-10 -38 -15 -3 -5 -18 -9 -34 -9 -16 0 -31 -4 -35 -9 -3 -5 -30 -13 -60 -16
-31 -4 -58 -11 -61 -16 -3 -5 -18 -9 -34 -9 -16 0 -32 -4 -35 -10 -3 -5 -17
-10 -31 -10 -13 0 -24 -4 -24 -9 0 -4 -27 -11 -60 -15 -33 -4 -60 -11 -60 -16
0 -6 -16 -10 -35 -10 -19 0 -35 -4 -35 -9 0 -4 -23 -11 -52 -14 -28 -4 -56
-11 -62 -17 -5 -5 -22 -10 -37 -10 -15 0 -31 -4 -34 -10 -3 -5 -17 -10 -31
-10 -13 0 -24 -4 -24 -9 0 -4 -27 -11 -60 -15 -33 -4 -60 -11 -60 -16 0 -6
-16 -10 -35 -10 -19 0 -35 -4 -35 -10 0 -5 -11 -10 -25 -10 -14 0 -25 -4 -25
-9 0 -4 -27 -11 -60 -15 -33 -4 -60 -11 -60 -16 0 -6 -16 -10 -35 -10 -19 0
-35 -4 -35 -8 0 -8 -62 -24 -147 -39 -18 -3 -30 -9 -27 -14 3 -5 -11 -9 -30
-9 -20 0 -36 -4 -36 -9 0 -5 -22 -12 -50 -16 -27 -4 -52 -11 -56 -16 -3 -5
-18 -9 -34 -9 -16 0 -32 -4 -35 -10 -3 -5 -17 -10 -31 -10 -13 0 -24 -4 -24
-9 0 -5 -25 -12 -55 -16 -30 -3 -57 -11 -60 -16 -4 -5 -17 -9 -31 -9 -13 0
-24 -4 -24 -10 0 -5 -14 -10 -30 -10 -17 0 -47 -7 -67 -15 -19 -8 -44 -15 -54
-15 -11 0 -19 -4 -19 -10 0 -5 -11 -10 -25 -10 -14 0 -25 -4 -25 -9 0 -5 -22
-11 -50 -15 -27 -4 -52 -11 -55 -16 -3 -6 -19 -10 -36 -10 -16 0 -29 -4 -29
-8 0 -7 -48 -21 -132 -39 -16 -3 -28 -9 -28 -14 0 -5 -11 -9 -25 -9 -14 0 -25
-4 -25 -10 0 -5 -10 -10 -22 -10 -13 0 -36 -7 -52 -15 -15 -8 -37 -15 -47 -15
-11 0 -19 -4 -19 -10 0 -5 -11 -10 -25 -10 -14 0 -25 -4 -25 -10 0 -5 -15 -10
-32 -9 -18 0 -27 3 -20 6 6 2 12 20 12 39 0 19 5 34 10 34 6 0 10 35 10 86 0
54 -4 83 -10 79 -6 -4 -10 8 -10 29 0 20 -4 36 -10 36 -5 0 -10 8 -10 18 0 10
-8 28 -17 41 -9 14 -11 21 -5 17 6 -3 13 -2 17 4 3 5 17 10 31 10 13 0 24 5
24 10 0 6 14 10 30 10 17 0 30 4 30 9 0 5 20 12 45 15 24 4 47 11 50 17 4 5
17 9 31 9 13 0 24 5 24 10 0 6 11 10 25 10 14 0 25 4 25 9 0 5 22 11 50 15 27
4 52 11 55 16 3 6 17 10 31 10 13 0 24 3 24 8 0 7 58 25 123 39 15 3 27 9 27
14 0 5 11 9 25 9 14 0 25 4 25 9 0 5 22 12 50 16 27 4 52 11 56 16 3 5 16 9
30 9 13 0 24 5 24 10 0 6 11 10 25 10 14 0 25 4 25 9 0 5 23 12 50 16 28 4 50
11 50 16 0 5 9 9 20 9 11 0 28 4 38 9 9 5 44 17 77 27 33 9 64 21 69 26 6 4
20 8 33 8 13 0 23 4 23 9 0 5 20 12 45 15 25 4 45 11 45 17 0 5 11 9 25 9 14
0 25 5 25 10 0 6 16 10 35 10 19 0 35 4 35 9 0 6 20 13 45 17 25 3 45 10 45
15 0 5 11 9 25 9 14 0 25 4 25 9 0 5 20 12 45 15 24 4 47 11 50 17 4 5 15 9
26 9 10 0 28 5 39 10 11 6 28 14 38 19 10 5 37 12 60 16 23 4 44 11 48 16 3 5
16 9 30 9 13 0 24 5 24 10 0 6 10 10 23 10 12 0 35 7 51 15 15 8 37 15 47 15
11 0 19 5 19 10 0 6 11 10 25 10 14 0 25 5 25 10 0 6 9 10 20 10 22 0 106 26
132 40 10 6 27 10 38 10 11 0 20 4 20 9 0 4 16 11 36 14 42 7 94 29 94 39 0 5
11 8 25 8 14 0 42 7 62 15 19 8 44 15 54 15 11 0 19 5 19 10 0 6 11 10 25 10
14 0 25 4 25 9 0 5 20 12 45 15 25 4 45 11 45 17 0 5 11 9 25 9 14 0 25 5 25
10 0 6 11 10 25 10 14 0 25 4 25 9 0 5 19 11 43 15 48 8 97 27 97 38 0 5 9 8
20 8 10 0 41 7 67 16 49 15 59 19 125 48 20 9 43 16 52 16 9 0 24 4 34 9 9 5
28 13 42 19 14 5 41 17 62 26 20 9 45 16 55 16 23 0 73 22 73 33 0 4 8 7 19 7
35 0 121 33 121 47 0 13 -51 15 -142 6z m-3940 -1129 c4 -5 21 -16 37 -24 48
-23 154 -135 161 -170 4 -17 11 -33 15 -36 17 -10 10 -194 -8 -236 -9 -21 -20
-38 -25 -38 -4 0 -8 -4 -8 -10 0 -14 -32 -50 -45 -50 -6 0 -20 -8 -31 -19 -34
-31 -148 -45 -252 -31 -48 6 -88 15 -90 21 -2 5 -15 9 -28 9 -13 0 -24 4 -24
9 0 5 -9 13 -21 16 -26 9 -99 83 -99 101 0 8 -4 14 -9 14 -5 0 -12 13 -16 30
-4 16 -11 32 -16 35 -12 8 -12 172 1 180 6 3 10 15 10 25 0 10 7 25 15 34 8 8
15 17 15 21 0 3 11 17 25 31 14 14 25 29 25 34 0 6 8 10 19 10 10 0 24 7 31
15 7 8 21 15 31 15 11 0 19 4 19 9 0 6 15 12 33 14 52 8 228 1 235 -9z m2432
-74 c0 -5 -16 -10 -35 -10 -19 0 -35 -4 -35 -10 0 -5 -15 -10 -32 -10 -18 -1
-51 -7 -73 -15 -22 -8 -50 -15 -63 -15 -13 0 -20 -4 -17 -10 4 -6 -10 -10 -34
-10 -23 0 -41 -4 -41 -9 0 -5 -25 -12 -55 -16 -30 -3 -55 -11 -55 -16 0 -5
-18 -9 -40 -9 -22 0 -40 -4 -40 -10 0 -5 -13 -10 -29 -10 -17 0 -32 -4 -35 -9
-4 -5 -29 -12 -56 -16 -27 -4 -52 -11 -56 -16 -3 -5 -18 -9 -35 -9 -16 0 -29
-4 -29 -9 0 -5 -25 -13 -55 -16 -30 -4 -58 -11 -61 -16 -3 -5 -16 -9 -30 -9
-13 0 -24 -4 -24 -10 0 -5 -16 -10 -35 -10 -19 0 -35 -4 -35 -9 0 -5 -22 -12
-50 -16 -27 -4 -50 -11 -50 -16 0 -5 -11 -9 -25 -9 -14 0 -25 -4 -25 -9 0 -4
-23 -11 -52 -14 -28 -4 -56 -11 -62 -17 -5 -5 -23 -10 -38 -10 -15 0 -28 -4
-28 -10 0 -5 -13 -10 -29 -10 -17 0 -32 -4 -35 -9 -3 -5 -26 -12 -51 -15 -24
-4 -47 -11 -50 -17 -8 -12 -65 -12 -65 0 0 5 22 12 50 16 27 4 52 11 56 16 3
5 16 9 30 9 13 0 24 5 24 10 0 6 11 10 25 10 14 0 25 4 25 9 0 5 23 12 50 16
28 4 50 11 50 16 0 5 16 9 35 9 19 0 35 5 35 10 0 6 14 10 31 10 16 0 28 4 25
9 -3 5 19 12 49 16 30 3 57 11 60 16 4 5 17 9 30 9 13 0 26 4 29 9 3 5 26 12
51 15 24 4 47 11 50 17 4 5 19 9 35 9 16 0 32 5 35 10 3 6 17 10 31 10 13 0
24 4 24 9 0 4 27 11 60 15 33 4 60 11 60 16 0 6 16 10 35 10 19 0 35 4 35 9 0
4 23 11 52 14 28 4 56 11 62 17 5 5 25 10 43 10 18 0 33 5 33 10 0 6 16 10 35
10 19 0 35 4 35 9 0 5 29 12 65 16 36 3 67 11 70 16 4 5 22 9 41 9 19 0 34 5
34 10 0 6 16 10 35 10 19 0 35 -4 35 -10z"/>
<path d="M3710 5640 c0 -5 -18 -10 -40 -10 -22 0 -40 -4 -40 -10 0 -5 -11 -10
-24 -10 -24 0 -56 -23 -56 -40 0 -5 -9 -11 -19 -15 -34 -10 -51 -65 -51 -165
0 -89 16 -150 40 -150 6 0 10 -7 10 -16 0 -20 54 -74 73 -74 8 0 17 -7 21 -15
3 -8 15 -15 26 -15 11 0 20 -4 20 -10 0 -5 11 -10 25 -10 14 0 25 -4 25 -10 0
-6 28 -10 65 -10 37 0 65 4 65 10 0 6 8 10 18 10 52 0 141 74 168 138 8 19 14
59 14 88 0 56 -19 134 -32 134 -5 0 -8 5 -8 11 0 6 -6 16 -12 24 -7 7 -22 25
-32 39 -10 14 -24 26 -30 26 -6 0 -17 9 -23 19 -7 11 -26 22 -43 26 -16 4 -30
11 -30 16 0 5 -20 9 -45 9 -25 0 -45 5 -45 10 0 6 -9 10 -20 10 -11 0 -20 -4
-20 -10z"/>
<path d="M8455 6780 c-3 -5 -33 -10 -66 -10 -32 0 -59 -4 -59 -9 0 -4 -39 -11
-87 -15 -48 -3 -92 -11 -97 -16 -6 -6 -32 -10 -58 -10 -26 0 -48 -4 -48 -10 0
-5 -13 -10 -30 -10 -16 0 -30 -4 -30 -9 0 -5 -13 -12 -28 -16 -36 -7 -108 -81
-117 -117 -4 -16 -11 -28 -16 -28 -5 0 -9 -9 -9 -20 0 -11 -4 -20 -10 -20 -5
0 -10 -7 -10 -15 0 -8 -4 -15 -10 -15 -15 0 -12 -39 4 -56 17 -16 136 -20 136
-4 0 6 25 10 55 10 30 0 55 4 55 9 0 5 50 13 110 16 61 4 110 11 110 16 0 5
36 9 80 9 47 0 80 4 80 10 0 6 38 10 95 10 57 0 95 4 95 10 0 6 130 10 371 10
l370 0 -3 22 c-2 15 -14 26 -33 33 -16 5 -32 12 -35 15 -12 12 -111 60 -125
60 -8 0 -15 5 -15 10 0 6 -11 10 -25 10 -14 0 -25 4 -25 10 0 5 -16 12 -35 16
-19 3 -35 10 -35 15 0 5 -11 9 -25 9 -14 0 -25 4 -25 8 0 12 -91 42 -128 42
-20 0 -31 4 -27 10 4 6 -11 10 -39 10 -25 0 -48 5 -51 10 -4 6 -58 10 -130 10
-72 0 -126 -4 -130 -10z"/>
<path d="M2333 6628 c-32 -67 -43 -99 -43 -121 0 -14 -4 -29 -10 -32 -5 -3
-10 -28 -10 -56 l0 -49 34 0 c19 0 38 5 41 10 3 6 19 10 35 10 16 0 32 5 35
10 3 6 22 10 41 10 19 0 34 4 34 9 0 5 29 12 65 16 36 3 67 11 70 16 4 5 22 9
41 9 19 0 34 5 34 10 0 6 15 10 34 10 19 0 36 5 38 12 6 16 220 17 226 0 2 -7
10 -12 18 -12 8 0 14 -4 14 -10 0 -5 5 -10 10 -10 18 0 90 -65 90 -81 0 -16
77 -89 94 -89 9 0 16 -4 16 -10 0 -5 14 -10 31 -10 17 0 39 -5 49 -10 11 -6
46 -13 80 -17 33 -3 60 -10 60 -14 0 -5 20 -9 45 -9 25 0 45 -4 45 -9 0 -5 17
-11 38 -14 75 -11 152 -31 152 -39 0 -4 9 -8 21 -8 24 0 99 -72 99 -96 0 -8
-20 -35 -45 -60 -50 -48 -51 -50 -31 -70 17 -16 36 -19 36 -4 0 6 199 10 535
12 411 2 537 6 547 16 6 6 22 12 35 12 13 0 23 5 23 10 0 6 11 10 25 10 14 0
25 4 25 9 0 5 23 12 50 16 28 4 50 11 50 16 0 5 11 9 24 9 14 0 27 4 30 9 3 5
26 12 51 15 24 4 47 11 50 17 4 5 17 9 31 9 13 0 24 5 24 10 0 6 11 10 25 10
14 0 25 4 25 9 0 5 22 11 50 15 27 4 52 11 55 16 3 6 17 10 31 10 13 0 24 5
24 10 0 6 8 10 18 10 20 0 118 33 129 43 3 4 15 7 25 7 10 0 26 4 36 9 9 6 43
17 75 27 31 9 57 21 57 25 0 5 16 9 35 9 19 0 35 4 35 9 0 6 20 13 45 17 25 3
45 10 45 15 0 5 11 9 25 9 14 0 25 4 25 9 0 5 20 12 45 15 24 4 47 11 50 17 4
5 17 9 30 9 13 0 27 5 30 10 3 6 17 10 31 10 13 0 24 4 24 9 0 5 20 12 45 15
24 4 47 11 50 17 4 5 17 9 31 9 13 0 24 5 24 10 0 6 11 10 25 10 14 0 25 4 25
9 0 5 20 12 45 15 25 4 45 11 45 17 0 5 11 9 25 9 14 0 25 5 25 10 0 6 15 10
34 10 39 0 82 30 74 52 -5 13 -126 16 -939 21 -513 4 -1123 7 -1356 7 -275 0
-423 3 -423 10 0 7 -286 10 -838 10 l-839 0 -10 -22z"/>
<path d="M2710 6350 c0 -5 -20 -10 -45 -10 -25 0 -45 -4 -45 -10 0 -5 -20 -10
-45 -10 -25 0 -45 -4 -45 -9 0 -4 -27 -11 -60 -15 -33 -4 -60 -11 -60 -16 0
-6 -11 -10 -25 -10 -14 0 -25 -3 -25 -7 0 -5 -27 -16 -60 -27 -33 -10 -60 -22
-60 -27 0 -5 -9 -9 -20 -9 -11 0 -20 -4 -20 -10 0 -5 -7 -10 -16 -10 -10 0
-14 -7 -12 -22 3 -21 9 -23 82 -26 79 -3 127 8 154 35 7 7 22 13 32 13 10 0
22 5 25 10 3 6 15 10 26 10 10 0 19 5 19 10 0 6 11 10 25 10 14 0 25 5 25 10
0 6 10 10 23 10 12 0 35 7 51 15 15 8 39 15 52 15 12 0 26 5 29 10 3 6 17 10
31 10 13 0 24 4 24 8 0 4 16 14 36 21 19 7 33 18 31 24 -5 15 -127 22 -127 7z"/>
<path d="M6860 6280 c0 -5 -10 -10 -21 -10 -25 0 -99 -70 -99 -94 0 -9 -4 -16
-10 -16 -6 0 -10 -26 -10 -58 0 -50 4 -62 29 -90 17 -17 37 -32 45 -32 8 0 18
-4 21 -10 3 -5 15 -10 26 -10 11 0 17 5 14 10 -4 6 7 10 24 10 17 0 31 4 31 9
0 5 10 11 23 15 25 6 61 63 72 113 13 65 -15 128 -72 161 -27 14 -73 16 -73 2z"/>
<path d="M2760 6230 c-8 -5 -27 -10 -42 -10 -16 0 -28 -4 -28 -10 0 -5 -11
-10 -24 -10 -14 0 -28 -4 -31 -10 -3 -5 -17 -10 -29 -10 -13 0 -29 -7 -36 -15
-19 -22 5 -45 46 -45 19 0 34 -4 34 -9 0 -5 10 -13 23 -17 12 -5 -340 -10
-820 -11 -464 -2 -843 -7 -843 -12 0 -4 -25 -11 -55 -14 -53 -5 -113 -21 -147
-38 -10 -5 -29 -9 -43 -9 -14 0 -25 -4 -25 -10 0 -5 -9 -10 -20 -10 -14 0 -20
-7 -20 -24 0 -21 5 -24 61 -30 34 -3 91 -6 126 -6 40 0 62 -4 58 -10 -4 -6 28
-10 89 -10 52 0 98 -4 101 -10 3 -5 46 -10 95 -10 49 0 100 -4 113 -9 14 -6
102 -13 196 -17 94 -4 168 -11 165 -15 -3 -5 40 -9 95 -9 61 0 101 -4 101 -10
0 -6 33 -10 78 -10 63 0 83 -4 100 -19 12 -10 22 -23 22 -29 0 -14 33 -76 43
-80 4 -2 7 -12 7 -23 0 -10 3 -19 8 -19 4 0 16 -21 26 -48 11 -26 22 -49 26
-52 6 -5 22 -38 51 -107 8 -18 17 -33 21 -33 5 0 8 -4 8 -10 0 -17 34 -90 42
-90 5 0 8 -9 8 -20 0 -11 4 -20 10 -20 5 0 12 -16 16 -35 3 -19 10 -35 15 -35
5 0 9 -5 9 -11 0 -12 25 -39 36 -39 4 0 27 20 51 45 23 25 47 45 52 45 6 0 26
15 44 34 19 18 44 37 56 41 11 3 21 10 21 14 0 4 23 20 50 36 28 16 50 33 50
37 0 4 9 8 20 8 11 0 20 4 20 9 0 5 10 11 23 15 12 3 32 14 43 24 11 11 35 23
52 27 18 3 32 11 32 16 0 5 9 9 20 9 11 0 20 5 20 10 0 6 7 10 15 10 8 0 23 4
33 10 9 5 33 16 52 24 19 7 50 20 68 27 17 8 32 17 32 21 0 5 10 8 23 8 41 0
60 36 35 65 -30 33 -38 45 -38 55 0 5 -4 10 -9 10 -5 0 -12 8 -16 19 -3 10
-18 32 -34 49 -16 16 -32 39 -36 51 -3 11 -11 21 -16 21 -5 0 -9 5 -9 11 0 6
-6 17 -12 24 -29 32 -38 45 -38 52 0 5 -9 15 -20 23 -11 8 -20 20 -20 27 0 7
-11 23 -25 37 -14 14 -25 30 -25 36 0 5 -4 10 -9 10 -5 0 -12 8 -15 18 -4 10
-14 27 -24 38 -9 10 -25 31 -35 47 -13 20 -25 27 -50 27 -17 0 -39 -5 -47 -10z"/>
<path d="M3140 6156 c0 -8 7 -21 15 -30 8 -8 15 -21 15 -30 0 -8 11 -23 25
-34 14 -11 25 -25 25 -31 0 -7 11 -22 25 -35 14 -13 25 -27 25 -33 0 -5 16
-26 36 -47 32 -34 40 -38 72 -32 20 3 38 10 40 16 2 5 15 10 28 10 13 0 24 4
24 9 0 5 16 12 35 15 36 7 118 45 123 59 2 4 12 7 22 7 34 0 50 12 50 36 0 17
-6 24 -20 24 -11 0 -20 5 -20 10 0 6 -15 10 -34 10 -19 0 -37 4 -41 9 -3 5
-41 13 -85 17 -44 3 -80 11 -80 15 0 5 -18 9 -40 9 -22 0 -40 5 -40 10 0 6
-25 10 -55 10 -30 0 -55 5 -55 10 0 6 -20 10 -45 10 -32 0 -45 -4 -45 -14z"/>
<path d="M6420 6140 c0 -5 -11 -10 -25 -10 -25 0 -41 -9 -68 -38 -45 -48 -57
-76 -57 -132 0 -44 4 -56 34 -85 31 -32 38 -35 95 -35 33 0 61 3 61 8 0 4 14
15 30 24 17 10 33 25 37 35 4 10 11 21 17 25 16 11 14 160 -2 166 -7 2 -19 10
-26 18 -8 8 -19 14 -25 14 -6 0 -11 5 -11 10 0 6 -13 10 -30 10 -16 0 -30 -4
-30 -10z"/>
<path d="M5960 6001 c0 -5 -13 -12 -29 -16 -28 -6 -71 -46 -71 -65 0 -6 -4
-10 -10 -10 -5 0 -10 -13 -10 -30 0 -16 -4 -30 -10 -30 -5 0 -10 -11 -10 -24
0 -14 5 -28 10 -31 6 -3 10 -15 10 -26 0 -10 5 -19 10 -19 6 0 10 -5 10 -11 0
-18 24 -35 59 -42 148 -30 268 179 158 276 -11 9 -26 17 -34 17 -7 0 -13 5
-13 10 0 6 -16 10 -35 10 -19 0 -35 -4 -35 -9z"/>
<path d="M5513 5863 c-26 -5 -103 -80 -103 -100 0 -7 -4 -13 -10 -13 -14 0
-12 -96 3 -122 17 -31 34 -48 46 -48 6 0 11 -4 11 -10 0 -5 24 -10 54 -10 52
0 57 2 104 50 55 55 69 97 56 166 -13 70 -78 105 -161 87z"/>
<path d="M5075 5730 c-3 -5 -13 -10 -21 -10 -19 0 -74 -56 -74 -75 0 -8 -4
-15 -10 -15 -6 0 -10 -30 -10 -70 0 -64 3 -74 27 -98 24 -23 35 -27 88 -27 60
0 63 1 103 45 24 25 42 54 42 67 0 13 5 23 10 23 14 0 12 56 -2 82 -29 50 -77
88 -113 88 -18 0 -37 -4 -40 -10z"/>
<path d="M3018 5483 c-10 -2 -18 -9 -18 -14 0 -5 -11 -9 -25 -9 -14 0 -25 -4
-25 -10 0 -5 -9 -10 -20 -10 -11 0 -20 -4 -20 -9 0 -5 -13 -12 -29 -16 -15 -3
-38 -15 -49 -25 -12 -11 -24 -20 -28 -20 -14 0 -80 -35 -94 -51 -8 -9 -25 -19
-37 -23 -13 -4 -23 -12 -23 -17 0 -5 -5 -9 -10 -9 -14 0 -60 -46 -60 -60 0 -5
16 -10 35 -10 19 0 35 5 35 10 0 6 7 10 15 10 8 0 15 4 15 10 0 5 11 12 25 16
14 3 25 10 25 15 0 5 6 9 13 9 7 0 23 9 35 20 12 11 24 20 28 20 8 0 78 33 84
40 3 3 25 14 50 25 25 11 47 22 50 25 3 4 24 15 47 26 31 14 43 25 43 42 0 22
-18 27 -62 15z"/>
<path d="M1200 3706 c0 -16 7 -27 20 -31 11 -3 20 -11 20 -16 0 -5 7 -9 15 -9
8 0 15 -4 15 -8 0 -4 15 -16 32 -27 18 -10 43 -29 56 -42 13 -13 29 -23 36
-23 8 0 16 -6 19 -14 3 -8 21 -22 39 -30 30 -15 182 -16 1558 -11 839 3 2644
7 4013 10 1635 3 2487 9 2487 15 0 6 9 10 20 10 11 0 20 3 20 8 0 4 16 16 35
26 19 11 35 22 35 25 0 4 16 15 35 25 19 11 35 23 35 28 0 4 5 8 10 8 16 0 70
52 70 67 0 11 -719 13 -4285 13 l-4285 0 0 -24z"/>
<path d="M5984 3432 c5 -9 -269 -22 -440 -22 -46 0 -86 -4 -89 -10 -4 -7 -637
-10 -1866 -10 -1599 0 -1862 -2 -1875 -14 -8 -8 -14 -17 -14 -21 0 -10 28 -35
39 -35 6 0 11 -4 11 -9 0 -5 10 -13 22 -17 12 -3 31 -15 42 -25 11 -11 26 -19
33 -19 7 0 13 -4 13 -10 0 -5 11 -12 25 -16 14 -3 25 -10 25 -15 0 -5 1482 -9
3560 -9 2367 0 3560 3 3560 10 0 6 11 10 24 10 14 0 31 7 40 15 8 8 19 15 25
15 6 0 16 9 23 20 7 11 21 20 31 20 10 0 20 7 23 15 4 8 11 15 18 15 6 0 28
16 48 35 20 19 41 35 47 35 6 0 11 11 11 25 l0 25 -1671 0 c-918 0 -1668 -4
-1665 -8z"/>
<path d="M2460 3012 c0 -24 21 -52 39 -52 6 0 11 -4 11 -8 0 -5 16 -17 35 -28
19 -10 35 -22 35 -26 0 -5 7 -8 15 -8 8 0 15 -3 15 -8 0 -4 16 -16 35 -26 19
-11 35 -23 35 -28 0 -4 9 -8 20 -8 11 0 20 -4 20 -9 0 -5 10 -13 23 -17 12 -4
29 -14 37 -23 16 -17 44 -36 70 -48 8 -4 24 -15 35 -25 10 -10 36 -21 57 -24
21 -4 38 -10 38 -15 0 -5 291 -9 660 -9 430 0 660 3 660 10 0 6 650 11 1897
12 1506 2 1897 6 1901 16 2 6 10 12 18 12 8 0 14 3 14 8 0 4 16 16 35 26 19
11 35 23 35 28 0 4 9 8 20 8 11 0 20 3 20 8 0 4 16 16 35 26 19 11 35 23 35
28 0 4 7 8 15 8 8 0 15 4 15 9 0 5 10 13 23 17 12 4 29 15 37 24 8 9 25 20 38
24 12 4 22 12 22 17 0 5 6 9 14 9 8 0 21 8 28 19 7 10 22 20 33 22 13 3 21 14
23 32 l3 27 -3050 -3 -3051 -2 0 -23z"/>
<path d="M3530 2390 c0 -27 4 -31 45 -42 25 -7 45 -16 45 -20 0 -4 7 -8 15 -8
8 0 15 -4 15 -9 0 -5 15 -12 34 -15 19 -4 36 -10 38 -14 4 -10 88 -49 124 -58
16 -4 31 -10 34 -13 11 -13 50 -30 84 -36 20 -4 36 -11 36 -16 0 -5 11 -9 25
-9 14 0 25 -4 25 -10 0 -5 11 -10 25 -10 14 0 25 -4 25 -9 0 -5 20 -12 45 -15
25 -4 45 -11 45 -17 0 -5 11 -9 24 -9 14 0 28 -4 31 -10 3 -5 19 -10 34 -10
15 0 32 -5 37 -10 6 -6 34 -13 62 -17 29 -3 52 -10 52 -14 0 -5 10 -9 23 -9
13 0 27 -4 33 -10 5 -5 42 -12 82 -16 39 -4 72 -11 72 -15 0 -5 18 -9 40 -9
22 0 40 -4 40 -10 0 -5 19 -10 43 -10 24 0 47 -4 52 -9 6 -5 65 -13 133 -17
67 -4 122 -11 122 -15 0 -5 54 -9 119 -9 69 0 122 -4 126 -10 4 -6 68 -10 161
-10 96 0 154 4 154 10 0 6 47 10 120 10 66 0 120 4 120 9 0 4 57 11 127 15 69
4 134 11 144 17 10 5 36 9 59 9 25 0 39 4 35 10 -4 6 12 10 39 10 25 0 46 4
46 9 0 4 36 12 80 15 44 4 80 12 80 17 0 5 16 9 35 9 19 0 35 5 35 10 0 6 14
10 30 10 17 0 47 7 67 15 19 8 44 15 54 15 11 0 19 5 19 10 0 6 11 10 25 10
14 0 25 4 25 9 0 5 21 12 46 16 26 4 54 10 63 15 9 5 31 15 49 22 17 7 32 16
32 19 0 4 20 10 45 13 25 4 45 11 45 17 0 5 7 9 15 9 8 0 15 5 15 10 0 6 9 10
20 10 25 0 100 32 100 42 0 5 9 8 20 8 11 0 20 4 20 10 0 5 16 12 35 16 19 3
35 10 35 15 0 5 7 9 15 9 8 0 15 5 15 10 0 6 7 10 16 10 31 0 74 33 74 57 l0
23 -1950 0 -1950 0 0 -30z"/>
</g>
</svg>
